<?xml version="1.0" encoding="utf-8"?>
<svg viewBox="-66.914 -20.309 1440 512.68" xmlns="http://www.w3.org/2000/svg">
  <path fill="#4f50ff" fill-opacity="1" d="M -66.914 265.006 L -18.914 246.059 C 29.086 227.112 125.086 189.218 221.086 214.441 C 317.086 240.138 413.086 327.768 509.086 366.018 C 605.086 403.557 701.086 391.715 797.086 353.465 C 893.086 315.926 980.794 182.123 1081.011 197.898 C 1179.464 213.394 1270.431 115.076 1304.713 68.682 L 1373.086 -20.309 L 1373.086 492.371 L 1325.086 492.371 C 1277.086 492.371 1181.086 492.371 1085.086 492.371 C 989.086 492.371 893.086 492.371 797.086 492.371 C 701.086 492.371 605.086 492.371 509.086 492.371 C 413.086 492.371 317.086 492.371 221.086 492.371 C 125.086 492.371 29.086 492.371 -18.914 492.371 L -66.914 492.371 L -66.914 265.006 Z" style=""/>
</svg>